<svg width="78" height="19" viewBox="0 0 78 19" fill="none" xmlns="http://www.w3.org/2000/svg">
<path d="M29.4008 8.1C29.2008 9.6 28.0008 9.6 26.9008 9.6H26.3008L26.8008 6.7C26.8008 6.5 27.0008 6.4 27.2008 6.4H27.5008C28.3008 6.4 29.0008 6.4 29.4008 6.8C29.4008 7.2 29.4008 7.6 29.4008 8.1ZM28.9008 4.1H24.6008C24.3008 4.1 24.1008 4.3 24.0008 4.6L22.3008 15.6C22.3008 15.8 22.4008 16 22.7008 16H24.7008C25.0008 16 25.2008 15.8 25.3008 15.5L25.8008 12.5C25.8008 12.2 26.1008 12 26.4008 12H27.8008C30.6008 12 32.2008 10.6 32.7008 7.9C32.9008 6.7 32.7008 5.8 32.2008 5.1C31.4008 4.5 30.3008 4.1 28.9008 4.1Z" fill="#263577"/>
<path d="M38.8003 12.1C38.6003 13.3 37.7003 14.1 36.5003 14.1C35.9003 14.1 35.4003 13.9 35.1003 13.5C34.8003 13.1 34.7003 12.6 34.8003 12.1C35.0003 10.9 35.9003 10.1 37.1003 10.1C37.7003 10.1 38.2003 10.3 38.5003 10.7C38.7003 11 38.9003 11.5 38.8003 12.1ZM41.6003 8.1H39.6003C39.4003 8.1 39.3003 8.2 39.2003 8.4L39.1003 9L39.0003 8.8C38.6003 8.2 37.6003 7.9 36.6003 7.9C34.3003 7.9 32.4003 9.6 32.0003 12C31.8003 13.2 32.1003 14.3 32.8003 15.1C33.4003 15.8 34.3003 16.1 35.4003 16.1C37.2003 16.1 38.2003 14.9 38.2003 14.9L38.1003 15.5C38.1003 15.7 38.2003 15.9 38.5003 15.9H40.3003C40.6003 15.9 40.8003 15.7 40.9003 15.4L42.0003 8.4C42.0003 8.3 41.9003 8.1 41.6003 8.1Z" fill="#263577"/>
<path d="M52.4993 8.1H50.3993C50.1993 8.1 49.9992 8.2 49.8993 8.4L47.0993 12.6L45.8992 8.6C45.7992 8.3 45.5992 8.2 45.2992 8.2H43.2992C43.0992 8.2 42.8993 8.4 42.9993 8.7L45.2992 15.3L43.1992 18.3C42.9992 18.5 43.1993 18.9 43.4993 18.9H45.5993C45.7993 18.9 45.9993 18.8 46.0993 18.6L52.8993 8.7C52.9993 8.4 52.7993 8.1 52.4993 8.1Z" fill="#263577"/>
<path d="M59.7992 8.1C59.5992 9.6 58.3992 9.6 57.2992 9.6H56.6992L57.1992 6.7C57.1992 6.5 57.3992 6.4 57.5992 6.4H57.8992C58.6992 6.4 59.3992 6.4 59.7992 6.8C59.8992 7.2 59.8992 7.6 59.7992 8.1ZM59.2992 4.1H54.9992C54.6992 4.1 54.4992 4.3 54.3992 4.6L52.6992 15.6C52.6992 15.8 52.7992 16 53.0992 16H55.2992C55.4992 16 55.6992 15.9 55.6992 15.6L56.1992 12.5C56.1992 12.2 56.4992 12 56.7992 12H58.1992C60.9992 12 62.5992 10.6 63.0992 7.9C63.2992 6.7 63.0992 5.8 62.5992 5.1C61.8992 4.5 60.7992 4.1 59.2992 4.1Z" fill="#2199D6"/>
<path d="M69.3003 12.1C69.1003 13.3 68.2003 14.1 67.0003 14.1C66.4003 14.1 65.9003 13.9 65.6003 13.5C65.3003 13.1 65.2003 12.6 65.3003 12.1C65.5003 10.9 66.4003 10.1 67.6003 10.1C68.2003 10.1 68.7003 10.3 69.0003 10.7C69.2003 11 69.4003 11.5 69.3003 12.1ZM72.1003 8.1H70.1003C69.9003 8.1 69.8003 8.2 69.7003 8.4L69.6003 9L69.5003 8.8C69.1003 8.2 68.1003 7.9 67.1003 7.9C64.8003 7.9 62.9003 9.6 62.5003 12C62.3003 13.2 62.6003 14.3 63.3003 15.1C63.9003 15.8 64.8003 16.1 65.9003 16.1C67.7003 16.1 68.7003 14.9 68.7003 14.9L68.6003 15.5C68.6003 15.7 68.7003 15.9 69.0003 15.9H70.8003C71.1003 15.9 71.3003 15.7 71.4003 15.4L72.5003 8.4C72.5003 8.3 72.3003 8.1 72.1003 8.1Z" fill="#2199D6"/>
<path d="M74.4992 4.4L72.6992 15.6C72.6992 15.8 72.7992 16 73.0992 16H74.8992C75.1992 16 75.3992 15.8 75.4992 15.5L77.1992 4.5C77.1992 4.3 77.0992 4.1 76.7992 4.1H74.7992C74.6992 4.1 74.5992 4.3 74.4992 4.4Z" fill="#2199D6"/>
<path d="M4.49962 18.1L4.79961 16H4.09961H0.599609L2.99962 0.699997C2.99962 0.699997 2.99961 0.599998 3.09961 0.599998H3.19962H9.09961C10.9996 0.599998 12.3996 0.999999 13.0996 1.8C13.3996 2.2 13.5996 2.6 13.6996 3C13.7996 3.5 13.7996 4 13.6996 4.7V5.1L13.9996 5.3C14.2996 5.4 14.4996 5.6 14.6996 5.8C14.9996 6.1 15.1996 6.5 15.1996 7C15.2996 7.5 15.2996 8.1 15.0996 8.8C14.8996 9.6 14.6996 10.2 14.3996 10.8C14.0996 11.3 13.6996 11.7 13.2996 12.1C12.8996 12.4 12.2996 12.6 11.7996 12.8C11.1996 12.9 10.5996 13 9.89961 13H9.39961C9.09961 13 8.79962 13.1 8.49962 13.3C8.29962 13.5 8.09962 13.8 7.99962 14.1V14.3L7.39961 18V18.1V18.2C7.39961 18.2 7.39961 18.2 7.29961 18.2H4.49962V18.1Z" fill="#263577"/>
<path d="M14.4004 4.7C14.4004 4.8 14.4004 4.9 14.3004 5C13.5004 9 10.9004 10.3 7.5004 10.3H5.80038C5.40038 10.3 5.0004 10.6 5.0004 11L4.10039 16.6L3.90039 18.2C3.90039 18.5 4.10038 18.7 4.30038 18.7H7.40039C7.80039 18.7 8.10039 18.4 8.10039 18.1V17.9L8.70039 14.3V14.1C8.80039 13.7 9.10039 13.5 9.40039 13.5H9.90039C12.9004 13.5 15.2004 12.3 15.8004 8.8C16.1004 7.3 15.9004 6.1 15.2004 5.3C15.0004 5.1 14.7004 4.9 14.4004 4.7Z" fill="#2199D6"/>
<path d="M13.6 4.4C13.5 4.4 13.4 4.3 13.2 4.3C13.1 4.3 12.9 4.2 12.8 4.2C12.3 4.1 11.8 4.1 11.3 4.1H6.7C6.6 4.1 6.49999 4.1 6.39999 4.2C6.19999 4.3 6 4.5 6 4.7L5 10.9V11.1C5.1 10.7 5.39999 10.4 5.79999 10.4H7.5C10.9 10.4 13.5 9 14.3 5.1C14.3 5 14.3 4.9 14.4 4.8C14.2 4.7 14 4.6 13.8 4.5C13.7 4.4 13.6 4.4 13.6 4.4Z" fill="#252C5E"/>
<path d="M6 4.7C6 4.5 6.19999 4.3 6.39999 4.2C6.49999 4.2 6.6 4.1 6.7 4.1H11.3C11.8 4.1 12.4 4.1 12.8 4.2C12.9 4.2 13.1 4.2 13.2 4.3C13.3 4.3 13.4 4.4 13.6 4.4C13.7 4.4 13.7 4.4 13.8 4.5C14 4.6 14.2 4.7 14.4 4.8C14.6 3.3 14.4 2.3 13.6 1.4C12.7 0.399998 11.1 0 9.09999 0H3.2C2.8 0 2.39999 0.299997 2.39999 0.699997L0 16.1C0 16.4 0.2 16.7 0.5 16.7H4.09999L5 10.9L6 4.7Z" fill="#263577"/>
</svg>
