<svg width="39" height="17" viewBox="0 0 39 17" fill="none" xmlns="http://www.w3.org/2000/svg">
<path fill-rule="evenodd" clip-rule="evenodd" d="M39 8.40823C39 5.62721 37.6567 3.43282 35.0892 3.43282C32.5109 3.43282 30.9509 5.62721 30.9509 8.3865C30.9509 11.6564 32.7925 13.3076 35.4359 13.3076C36.725 13.3076 37.7 13.0143 38.4367 12.6015V10.4288C37.7 10.7982 36.855 11.0263 35.7825 11.0263C34.7317 11.0263 33.8 10.6569 33.6809 9.37506H38.9784C38.9784 9.23384 39 8.66895 39 8.40823ZM33.6484 7.37621C33.6484 6.14865 34.3959 5.63807 35.0784 5.63807C35.7392 5.63807 36.4434 6.14865 36.4434 7.37621H33.6484Z" fill="#635BFF"/>
<path fill-rule="evenodd" clip-rule="evenodd" d="M26.7691 3.43282C25.7075 3.43282 25.025 3.93253 24.6458 4.28016L24.505 3.60663H22.1216V16.2733L24.83 15.6975L24.8408 12.6232C25.2308 12.9056 25.805 13.3076 26.7583 13.3076C28.6975 13.3076 30.4633 11.7433 30.4633 8.29959C30.4525 5.14922 28.665 3.43282 26.7691 3.43282ZM26.1191 10.9177C25.48 10.9177 25.1008 10.6895 24.8408 10.4071L24.83 6.37678C25.1116 6.06174 25.5016 5.84448 26.1191 5.84448C27.105 5.84448 27.7875 6.95254 27.7875 8.37564C27.7875 9.83132 27.1158 10.9177 26.1191 10.9177Z" fill="#635BFF"/>
<path fill-rule="evenodd" clip-rule="evenodd" d="M18.395 2.79188L21.1142 2.20526V0L18.395 0.575757V2.79188Z" fill="#635BFF"/>
<path d="M21.1142 3.6175H18.395V13.1229H21.1142V3.6175Z" fill="#635BFF"/>
<path fill-rule="evenodd" clip-rule="evenodd" d="M15.4809 4.42138L15.3075 3.61749H12.9675V13.1229H15.6759V6.68095C16.315 5.84448 17.3984 5.99656 17.7342 6.11606V3.61749C17.3875 3.48713 16.12 3.24814 15.4809 4.42138Z" fill="#635BFF"/>
<path fill-rule="evenodd" clip-rule="evenodd" d="M10.0641 1.26015L7.42081 1.82504L7.40997 10.5266C7.40997 12.1343 8.61247 13.3185 10.2158 13.3185C11.1041 13.3185 11.7541 13.1555 12.1116 12.96V10.7547C11.765 10.8959 10.0533 11.3956 10.0533 9.78787V5.93138H12.1116V3.61749H10.0533L10.0641 1.26015Z" fill="#635BFF"/>
<path fill-rule="evenodd" clip-rule="evenodd" d="M2.74083 6.37678C2.74083 5.95311 3.0875 5.79016 3.66167 5.79016C4.485 5.79016 5.525 6.04002 6.34833 6.48541V3.93253C5.44917 3.57404 4.56083 3.43282 3.66167 3.43282C1.4625 3.43282 0 4.58433 0 6.50714C0 9.50542 4.11667 9.02744 4.11667 10.3202C4.11667 10.8199 3.68333 10.9828 3.07667 10.9828C2.1775 10.9828 1.02917 10.6135 0.119167 10.1138V12.6992C1.12667 13.1338 2.145 13.3185 3.07667 13.3185C5.33 13.3185 6.87917 12.1995 6.87917 10.255C6.86833 7.01772 2.74083 7.59348 2.74083 6.37678Z" fill="#635BFF"/>
</svg>
