<svg width="109" height="58" viewBox="0 0 109 58" fill="none" xmlns="http://www.w3.org/2000/svg">
<g filter="url(#filter0_d_827_4682)">
<path fill-rule="evenodd" clip-rule="evenodd" d="M26.5823 2L42.2059 17.3735V2.34458H47.3251V29.5L47.117 29.6451L31.4748 14.1895V29.1879H26.3768V2.13253L26.5823 2ZM68.8312 54.5442H64.9047V53.5171C64.9047 50.5352 64.934 47.5533 64.8927 44.5713C64.8542 41.8366 62.9647 40.3125 60.4816 40.9658C59.8257 41.132 59.2357 41.4923 58.7893 41.9993C58.3429 42.5063 58.0612 43.1362 57.9811 43.806C57.8712 44.4482 57.822 45.0994 57.8342 45.7508C57.8189 48.6612 57.8275 51.5709 57.8275 54.5296H53.9781V37.6983H57.8016V40.1574C59.3387 38.3232 60.9742 37.2285 63.1615 37.2775C64.1778 37.249 65.181 37.5115 66.052 38.0341C66.9231 38.5566 67.6255 39.3172 68.076 40.2257C69.275 38.6417 71.0557 37.5969 73.027 37.3206C76.5978 36.8567 79.4806 38.9004 79.67 42.4701C79.8814 46.4559 79.7186 50.4616 79.7186 54.519H75.9144V53.5489C75.9144 50.785 75.9217 48.0211 75.9084 45.2572C75.9063 44.7303 75.8619 44.2045 75.7754 43.6847C75.7088 42.9162 75.3597 42.1994 74.7953 41.6717C74.2309 41.144 73.4909 40.8426 72.7172 40.8254C71.9326 40.7414 71.1434 40.9341 70.4865 41.3699C69.8297 41.8057 69.3468 42.4571 69.1218 43.2109C68.9356 43.8662 68.8434 44.5444 68.8478 45.2254C68.8153 48.2954 68.8312 51.3675 68.8312 54.5422V54.5442ZM105.656 2.29687C105.381 2.79121 105.206 3.10994 105.027 3.42735C102.246 8.37735 99.4679 13.3291 96.6925 18.2826C96.5984 18.5227 96.4274 18.725 96.206 18.8581C95.9847 18.9913 95.7254 19.0478 95.4685 19.0189C94.2246 18.9605 92.9747 19.0255 91.7288 18.9831C91.5712 18.9798 91.4161 18.9434 91.2736 18.8762C91.131 18.8091 91.0043 18.7127 90.9018 18.5934C87.8389 13.2346 84.8065 7.85849 81.6605 2.29687C82.8724 2.36129 84.0871 2.352 85.2979 2.26903C87.0151 2.05102 87.9572 2.65072 88.7151 4.24705C90.1944 7.34892 91.9489 10.3202 93.6435 13.446C93.8596 13.0789 94.0351 12.7992 94.1934 12.5103C95.9186 9.35211 97.6505 6.19922 99.3525 3.02711C99.4453 2.78557 99.6157 2.58142 99.8371 2.44646C100.058 2.31151 100.318 2.25332 100.576 2.28096C102.193 2.32669 103.81 2.29488 105.656 2.29488V2.29687ZM102.395 47.4744H89.7921C90.07 49.2225 90.8246 50.5544 92.385 51.2621C94.9965 52.4469 97.2277 51.5636 99.292 49.7877L101.558 51.783C100.851 52.6729 99.969 53.4101 98.9665 53.9495C97.964 54.4889 96.8618 54.8193 95.7271 54.9206C91.7574 55.3361 88.3295 53.5337 86.7366 50.237C85.9147 48.5004 85.639 46.5567 85.9456 44.6611C86.2522 42.7654 87.1268 41.0066 88.4545 39.6154C90.8632 37.2245 93.7964 36.7434 96.9252 37.7089C100.054 38.6744 101.525 41.1547 102.127 44.1903C102.28 45.2782 102.37 46.3741 102.395 47.4724V47.4744ZM98.3492 44.8649C98.369 44.2981 98.2746 43.7331 98.0716 43.2033C97.8686 42.6734 97.5612 42.1895 97.1675 41.78C96.7738 41.3706 96.3018 41.0439 95.7793 40.8193C95.2569 40.5946 94.6945 40.4766 94.1255 40.4722C92.9841 40.5103 91.9026 40.9904 91.1107 41.8107C90.3188 42.6309 89.8789 43.7266 89.8846 44.8649H98.3492ZM77.4355 2.29488C74.1373 11.3785 70.9028 20.2878 67.6684 29.1945H62.3863C62.988 27.4544 63.5617 25.7911 64.1381 24.1286C66.5635 17.1276 69.0001 10.1294 71.3995 3.12253C71.4216 2.98977 71.4699 2.86269 71.5414 2.74857C71.613 2.63445 71.7065 2.53554 71.8165 2.45753C71.9265 2.37952 72.0509 2.32393 72.1825 2.29397C72.3142 2.26402 72.4505 2.26027 72.5836 2.28295C74.1379 2.32669 75.6976 2.29488 77.4355 2.29488ZM52.594 2.29488C54.4934 2.29488 56.1741 2.27633 57.8541 2.31741C57.9916 2.34303 58.121 2.40077 58.2317 2.48589C58.3424 2.57102 58.4313 2.6811 58.491 2.80711C59.8739 6.71675 61.2262 10.643 62.5765 14.5672C62.6479 14.7386 62.6653 14.9277 62.6263 15.1092C61.786 17.561 60.9283 20.0089 59.9849 22.7131L52.594 2.29488ZM2 7.15476V2.36181H19.908V7.15675H2.00199L2 7.15476ZM19.8807 13.4155V18.1607H2.01728V13.4175H19.8827L19.8807 13.4155ZM2.00066 29.1647V24.4393H19.9033V29.1647H2.00066ZM96.2078 23.5136V29.2064H91.1723V23.5136H96.2078Z" fill="white"/>
</g>
<defs>
<filter id="filter0_d_827_4682" x="0.5" y="0.866" width="107.656" height="56.9796" filterUnits="userSpaceOnUse" color-interpolation-filters="sRGB">
<feFlood flood-opacity="0" result="BackgroundImageFix"/>
<feColorMatrix in="SourceAlpha" type="matrix" values="0 0 0 0 0 0 0 0 0 0 0 0 0 0 0 0 0 0 127 0" result="hardAlpha"/>
<feOffset dx="0.5" dy="0.866"/>
<feGaussianBlur stdDeviation="1"/>
<feColorMatrix type="matrix" values="0 0 0 0 0 0 0 0 0 0 0 0 0 0 0.00392157 0 0 0 0.2 0"/>
<feBlend mode="normal" in2="BackgroundImageFix" result="effect1_dropShadow_827_4682"/>
<feBlend mode="normal" in="SourceGraphic" in2="effect1_dropShadow_827_4682" result="shape"/>
</filter>
</defs>
</svg>
